<?xml version="1.0" encoding="UTF-8"?>
<svg xmlns="http://www.w3.org/2000/svg" id="Layer_1" viewBox="0 0 354.05 238.4">
  <defs>
    <style>.cls-1{fill:#f7941d;}.cls-2{fill:#fff;}</style>
  </defs>
  <polygon class="cls-1" points="4 61.6 32.8 4 61.6 61.6 4 61.6"></polygon>
  <path class="cls-2" d="m266.78,172.34c-.68-1.35-2.06-2.21-3.58-2.21s-2.9.86-3.58,2.21l-28.8,57.6c-.62,1.24-.55,2.71.17,3.89.73,1.18,2.02,1.9,3.4,1.9h57.6c1.39,0,2.67-.72,3.4-1.9.73-1.18.79-2.65.17-3.89l-28.8-57.6Zm-25.91,55.39l22.33-44.66,22.33,44.66h-44.66Zm-6.47-162.13h57.6c1.39,0,2.67-.72,3.4-1.9.73-1.18.79-2.65.17-3.89l-28.8-57.6c-.68-1.35-2.06-2.21-3.58-2.21s-2.9.86-3.58,2.21l-28.8,57.6c-.62,1.24-.55,2.71.17,3.89.73,1.18,2.02,1.9,3.4,1.9Zm28.8-52.66l22.33,44.66h-44.66l22.33-44.66Zm43.2,52.66h43.2c2.21,0,4-1.79,4-4s-1.79-4-4-4h-39.2V4c0-2.21-1.79-4-4-4s-4,1.79-4,4v57.6c0,2.21,1.79,4,4,4ZM4,152c2.21,0,4-1.79,4-4v-53.6h35.2v12.81h-17.6c-1.61,0-3.06.97-3.69,2.45-.62,1.48-.3,3.2.83,4.35l36,36.79c.78.8,1.82,1.2,2.86,1.2s2.02-.38,2.8-1.14c1.58-1.54,1.61-4.08.06-5.66l-29.35-29.99h12.09c2.21,0,4-1.79,4-4v-20.81c0-2.21-1.79-4-4-4H4C1.79,86.4,0,88.19,0,90.4v57.6c0,2.21,1.79,4,4,4Zm216-86.4c2.21,0,4-1.79,4-4V4c0-2.21-1.79-4-4-4s-4,1.79-4,4v57.6c0,2.21,1.79,4,4,4Zm0,104.53c-2.21,0-4,1.79-4,4v57.6c0,2.21,1.79,4,4,4s4-1.79,4-4v-57.6c0-2.21-1.79-4-4-4Zm0-18.13h57.6c2.21,0,4-1.79,4-4v-57.6c0-2.21-1.79-4-4-4h-57.6c-2.21,0-4,1.79-4,4v57.6c0,2.21,1.79,4,4,4Zm4-57.6h49.6v49.6h-49.6v-49.6Zm-76-28.8c2.21,0,4-1.79,4-4V8h35.2v12.81h-17.6c-1.61,0-3.06.97-3.69,2.45-.62,1.48-.3,3.2.83,4.35l36,36.79c1.54,1.58,4.08,1.61,5.66.06,1.58-1.54,1.61-4.08.06-5.66l-29.35-29.99h12.09c2.21,0,4-1.79,4-4V4c0-2.21-1.79-4-4-4h-43.2c-2.21,0-4,1.79-4,4v57.6c0,2.21,1.79,4,4,4Zm-72,0h57.6c2.21,0,4-1.79,4-4s-1.79-4-4-4h-53.6v-28h53.6c2.21,0,4-1.79,4-4s-1.79-4-4-4h-53.6v-13.6h53.6c2.21,0,4-1.79,4-4s-1.79-4-4-4h-57.6c-2.21,0-4,1.79-4,4v57.6c0,2.21,1.79,4,4,4Zm72,86.4h57.6c2.21,0,4-1.79,4-4s-1.79-4-4-4h-53.6v-49.6h53.6c2.21,0,4-1.79,4-4s-1.79-4-4-4h-57.6c-2.21,0-4,1.79-4,4v57.6c0,2.21,1.79,4,4,4Zm-84.87,21.1c-1.5-.62-3.22-.28-4.36.87l-25.97,25.97-25.97-25.97c-1.14-1.14-2.86-1.49-4.36-.87C.97,173.72,0,175.18,0,176.8v57.6c0,2.21,1.79,4,4,4s4-1.79,4-4v-47.94l21.97,21.97c1.56,1.56,4.09,1.56,5.66,0l21.97-21.97v47.94c0,2.21,1.79,4,4,4s4-1.79,4-4v-57.6c0-1.62-.97-3.08-2.47-3.7Zm286.95-84.91c-2.22-.01-4.01,1.76-4.03,3.97l-.38,46.26-50.85-50.85c-1.14-1.14-2.86-1.49-4.36-.87-1.49.62-2.47,2.08-2.47,3.7v57.6c0,2.21,1.79,4,4,4s4-1.79,4-4v-47.94l50.77,50.77c.77.77,1.79,1.17,2.83,1.17.51,0,1.02-.1,1.51-.3,1.49-.61,2.47-2.06,2.48-3.67l.45-55.81c.02-2.21-1.76-4.01-3.97-4.03Zm-168.87,84.14c-.68-1.35-2.06-2.21-3.58-2.21h-28.8c-2.21,0-4,1.79-4,4v57.6c0,2.21,1.79,4,4,4h57.6c1.39,0,2.67-.72,3.4-1.9.73-1.18.79-2.65.17-3.89l-28.8-57.6Zm-28.38,55.39v-49.6h22.33l24.8,49.6h-47.13Zm-76.84-75.73h57.6c2.21,0,4-1.79,4-4s-1.79-4-4-4h-53.6v-28h53.6c2.21,0,4-1.79,4-4s-1.79-4-4-4h-53.6v-13.6h53.6c2.21,0,4-1.79,4-4s-1.79-4-4-4h-57.6c-2.21,0-4,1.79-4,4v57.6c0,2.21,1.79,4,4,4Zm58.44,26.13c2.21,0,4-1.79,4-4s-1.79-4-4-4h-57.6c-2.21,0-4,1.79-4,4v57.6c0,2.21,1.79,4,4,4h57.6c2.21,0,4-1.79,4-4s-1.79-4-4-4h-53.6v-28h53.6c2.21,0,4-1.79,4-4s-1.79-4-4-4h-53.6v-13.6h53.6ZM4,65.6h57.6c1.39,0,2.67-.72,3.4-1.9.73-1.18.79-2.65.17-3.89L36.38,2.21c-.68-1.35-2.06-2.21-3.58-2.21s-2.9.86-3.58,2.21L.42,59.81c-.62,1.24-.55,2.71.17,3.89.73,1.18,2.02,1.9,3.4,1.9ZM32.8,12.94l22.33,44.66H10.47L32.8,12.94Z"></path>
</svg>
