<?xml version="1.0" encoding="UTF-8"?>
<svg xmlns="http://www.w3.org/2000/svg" id="Layer_1" viewBox="0 0 57.34 57.34">
  <defs>
    <style>.cls-1{fill:#1f2759;}</style>
  </defs>
  <path class="cls-1" d="m34.51,28.68h-3.82v13.63h-5.66v-13.63h-2.69v-4.82h2.69v-3.12c0-2.23,1.06-5.72,5.72-5.72l4.2.02v4.68h-3.05c-.5,0-1.2.25-1.2,1.31v2.83h4.32l-.5,4.82Z"></path>
  <path class="cls-1" d="m28.67,57.34C12.86,57.34,0,44.48,0,28.67S12.86,0,28.67,0s28.67,12.86,28.67,28.67-12.86,28.67-28.67,28.67Zm0-55.34C13.96,2,2,13.96,2,28.67s11.96,26.67,26.67,26.67,26.67-11.96,26.67-26.67S43.37,2,28.67,2Z"></path>
</svg>
