<?xml version="1.0" encoding="UTF-8"?>
<svg xmlns="http://www.w3.org/2000/svg" id="Layer_1" viewBox="0 0 57.34 57.34">
  <defs>
    <style>.cls-1,.cls-2{fill:#1f2759;}.cls-2{fill-rule:evenodd;}</style>
  </defs>
  <path class="cls-1" d="m28.67,57.34C12.86,57.34,0,44.48,0,28.67S12.86,0,28.67,0s28.67,12.86,28.67,28.67-12.86,28.67-28.67,28.67Zm0-55.34C13.96,2,2,13.96,2,28.67s11.96,26.67,26.67,26.67,26.67-11.96,26.67-26.67S43.37,2,28.67,2Z"></path>
  <path class="cls-1" d="m19.2,12.41h.37c.17.04.22.17.22.33,0,.05,0,.1,0,.15,0,.98,0,1.96,0,2.94,0,1.08,0,2.16,0,3.23,0,.3,0,.59,0,.89,0,.18.08.26.25.26.24,0,.49-.01.73-.03.14-.01.23-.1.25-.24.02-.09.03-.18.03-.27,0-.34,0-.68,0-1.03,0-1.95,0-3.91,0-5.86,0-.21,0-.31.24-.36h14.23s.07.01.1.01c.85,0,1.69,0,2.54,0,.43,0,.85.04,1.27.14,1.31.32,2.4,1.01,3.28,2.02.7.81,1.17,1.75,1.36,2.81.1.57.11,1.14.12,1.72,0,1.12,0,2.24,0,3.35,0,.17-.05.22-.22.22-.04,0-.07,0-.11,0-3.11,0-6.23,0-9.34,0-.21,0-.37-.06-.52-.2-.41-.39-.86-.73-1.34-1.03-1.73-1.04-3.59-1.41-5.59-1.04-1.55.28-2.89.99-4.05,2.06-.15.14-.32.21-.53.21-3.13,0-6.26,0-9.39,0-.19,0-.24-.05-.24-.24,0-.28,0-.56,0-.84,0-1.18-.06-2.37.04-3.55.06-.72.22-1.41.52-2.06.46-.99,1.17-1.77,2.03-2.43.01,0,.03-.01.05-.02,0,.02,0,.03,0,.03,0,1.87,0,3.74,0,5.61,0,.26,0,.52,0,.78,0,.17.08.25.25.25.23,0,.47-.01.7-.04.16-.02.23-.11.25-.27.01-.1.02-.2.02-.3,0-2.11,0-4.23,0-6.34,0-.05,0-.09,0-.14-.03-.21-.02-.24.17-.33.19-.09.38-.17.59-.18.15-.01.19.03.17.18,0,.05-.01.11-.01.16,0,1.91,0,3.82,0,5.74,0,.42,0,.84,0,1.26,0,.18.07.26.25.26.23,0,.45,0,.68-.02.21-.02.3-.11.33-.32.02-.12.02-.24.02-.36,0-1.12,0-2.24,0-3.36,0-1.11,0-2.22-.02-3.34,0-.3.03-.34.3-.41Zm16.83,5.3h0c0,.58,0,1.17,0,1.75.01.57.41.95.98.95,1.1,0,2.21,0,3.31,0,.59,0,1-.41,1-.99,0-1.13,0-2.26,0-3.39,0-.59-.39-.99-.99-1-1.11,0-2.22,0-3.33,0-.58,0-.96.38-.97.96-.01.58,0,1.15,0,1.73Z"></path>
  <path class="cls-2" d="m21.97,23.65c-1.22,1.81-1.73,3.77-1.38,5.92.31,1.88,1.16,3.47,2.61,4.73,2.89,2.52,7.05,2.68,10.09.39,1.73-1.3,2.76-3.03,3.1-5.17.34-2.13-.18-4.08-1.39-5.87h.11c2.6,0,5.2,0,7.8,0,.29,0,.57,0,.86,0,.05,0,.11,0,.16,0,.13.02.21.08.22.22.01.18.01.36.01.54,0,1.3,0,2.6,0,3.9,0,3.17,0,6.35,0,9.52,0,1.56-.57,2.91-1.62,4.05-.92,1.01-2.06,1.65-3.41,1.9-.34.06-.69.1-1.04.1-6.37,0-12.73.02-19.1,0-2.88-.01-5.26-1.92-5.95-4.66-.14-.54-.19-1.1-.19-1.66,0-2.96,0-5.92,0-8.88,0-1.52,0-3.03-.01-4.55,0-.07,0-.13.01-.2.02-.19.1-.27.29-.28.2,0,.4,0,.6,0,2.7,0,5.4,0,8.09,0h.13Z"></path>
  <path class="cls-2" d="m28.53,22.13c3.41,0,6.17,2.77,6.17,6.19,0,3.43-2.76,6.16-6.2,6.16-3.41,0-6.18-2.77-6.17-6.18,0-3.4,2.79-6.17,6.21-6.16Zm4.55,6.25c.01-2.53-1.95-4.66-4.61-4.62-2.52.03-4.56,2.13-4.48,4.63.08,2.52,2.11,4.54,4.68,4.48,2.42-.07,4.44-2.11,4.42-4.49Z"></path>
</svg>
