<?xml version="1.0" encoding="UTF-8"?>
<svg xmlns="http://www.w3.org/2000/svg" id="Layer_1" viewBox="0 0 57.34 57.34">
  <defs>
    <style>.cls-1{fill:#1f2759;}</style>
  </defs>
  <path class="cls-1" d="m28.67,57.34C12.86,57.34,0,44.48,0,28.67S12.86,0,28.67,0s28.67,12.86,28.67,28.67-12.86,28.67-28.67,28.67Zm0-55.34C13.96,2,2,13.96,2,28.67s11.96,26.67,26.67,26.67,26.67-11.96,26.67-26.67S43.37,2,28.67,2Z"></path>
  <path class="cls-1" d="m21.77,39.13h-5.34v-17.18h5.34v17.18Zm-2.67-19.53c-1.71,0-3.1-1.39-3.1-3.1s1.38-3.1,3.1-3.1,3.09,1.39,3.09,3.1-1.39,3.1-3.09,3.1Zm22.67,19.53h-5.34v-8.35c0-1.99-.03-4.56-2.77-4.56s-3.2,2.17-3.2,4.41v8.5h-5.33v-17.18h5.12v2.35h.07c.71-1.35,2.45-2.77,5.05-2.77,5.41,0,6.41,3.56,6.41,8.18v9.42Z"></path>
</svg>
