<?xml version="1.0" encoding="UTF-8"?>
<svg xmlns="http://www.w3.org/2000/svg" id="Layer_1" viewBox="0 0 247.07 147">
  <defs>
    <style>.cls-1{fill:none;}.cls-2{fill:#f89521;}</style>
  </defs>
  <rect class="cls-1" width="247.07" height="147"></rect>
  <path class="cls-2" d="m4.14,128.74c0-1.58.29-3.06.87-4.46.58-1.39,1.36-2.61,2.37-3.64,1-1.03,2.2-1.85,3.59-2.46,1.4-.61,2.88-.91,4.46-.91s3.06.3,4.46.91c1.4.61,2.61,1.43,3.64,2.46,1.03,1.03,1.85,2.25,2.46,3.64.61,1.4.91,2.88.91,4.46s-.3,3.14-.91,4.5c-.61,1.36-1.43,2.56-2.46,3.59s-2.25,1.84-3.64,2.41c-1.4.58-2.88.86-4.46.86s-3.06-.29-4.46-.86c-1.4-.58-2.59-1.38-3.59-2.41-1-1.03-1.79-2.23-2.37-3.59-.58-1.37-.87-2.87-.87-4.5Z"></path>
  <path class="cls-2" d="m137.09,73.59c0,11.41-1.23,21.28-3.69,29.62-2.46,8.34-5.81,15.24-10.05,20.7-4.25,5.46-9.27,9.53-15.06,12.19-5.79,2.67-12,4-18.61,4s-12.88-1.33-18.61-4c-5.73-2.67-10.72-6.73-14.97-12.19-4.25-5.46-7.58-12.36-10.01-20.7-2.43-8.34-3.64-18.21-3.64-29.62s1.21-21.29,3.64-29.67c2.43-8.37,5.76-15.3,10.01-20.79,4.25-5.49,9.24-9.57,14.97-12.24,5.73-2.67,11.94-4,18.61-4s12.81,1.33,18.61,4c5.79,2.67,10.81,6.75,15.06,12.24,4.25,5.49,7.6,12.42,10.05,20.79,2.46,8.37,3.69,18.26,3.69,29.67Zm-16.83,0c0-9.95-.83-18.31-2.5-25.07-1.67-6.76-3.91-12.21-6.73-16.33-2.82-4.12-6.08-7.08-9.78-8.87-3.7-1.79-7.55-2.68-11.56-2.68s-7.86.9-11.56,2.68c-3.7,1.79-6.95,4.75-9.74,8.87-2.79,4.13-5.02,9.57-6.69,16.33-1.67,6.77-2.5,15.12-2.5,25.07s.83,18.29,2.5,25.02c1.67,6.73,3.9,12.16,6.69,16.29,2.79,4.13,6.04,7.08,9.74,8.87,3.7,1.79,7.55,2.68,11.56,2.68s7.86-.89,11.56-2.68c3.7-1.79,6.96-4.75,9.78-8.87,2.82-4.12,5.06-9.55,6.73-16.29,1.67-6.73,2.5-15.07,2.5-25.02Z"></path>
  <path class="cls-2" d="m242.93,91.7v9.28c0,.97-.29,1.79-.86,2.46-.58.67-1.47,1-2.68,1h-16.2v34.31h-14.2v-34.31h-57.88c-1.21,0-2.26-.35-3.14-1.05-.88-.7-1.44-1.56-1.68-2.59l-1.64-8.28L208.07,8.34h15.11v83.36h19.75Zm-33.94,0v-53.78c0-1.58.06-3.31.18-5.19.12-1.88.3-3.79.55-5.73l-47.5,64.7h46.77Z"></path>
</svg>
