<?xml version="1.0" encoding="UTF-8"?>
<svg xmlns="http://www.w3.org/2000/svg" id="Layer_1" viewBox="0 0 247.07 147">
  <defs>
    <style>.cls-1{fill:none;}.cls-2{fill:#f89521;}</style>
  </defs>
  <rect class="cls-1" width="247.07" height="147"></rect>
  <path class="cls-2" d="m5.51,128.69c0-1.58.29-3.06.87-4.46.58-1.39,1.36-2.61,2.37-3.64,1-1.03,2.2-1.85,3.59-2.46,1.4-.61,2.88-.91,4.46-.91s3.06.3,4.46.91c1.4.61,2.61,1.43,3.64,2.46,1.03,1.03,1.85,2.25,2.46,3.64.61,1.4.91,2.88.91,4.46s-.3,3.14-.91,4.5c-.61,1.36-1.43,2.56-2.46,3.59s-2.25,1.84-3.64,2.41c-1.4.58-2.88.86-4.46.86s-3.06-.29-4.46-.86c-1.4-.58-2.59-1.38-3.59-2.41-1-1.03-1.79-2.23-2.37-3.59-.58-1.37-.87-2.87-.87-4.5Z"></path>
  <path class="cls-2" d="m138.46,73.55c0,11.41-1.23,21.28-3.69,29.62-2.46,8.34-5.81,15.24-10.05,20.7-4.25,5.46-9.27,9.53-15.06,12.19-5.79,2.67-12,4-18.61,4s-12.88-1.33-18.61-4c-5.73-2.67-10.72-6.73-14.97-12.19-4.25-5.46-7.58-12.36-10.01-20.7-2.43-8.34-3.64-18.21-3.64-29.62s1.21-21.29,3.64-29.67c2.43-8.37,5.76-15.3,10.01-20.79,4.25-5.49,9.24-9.57,14.97-12.24,5.73-2.67,11.94-4,18.61-4s12.81,1.33,18.61,4c5.79,2.67,10.81,6.75,15.06,12.24,4.25,5.49,7.6,12.42,10.05,20.79,2.46,8.37,3.69,18.26,3.69,29.67Zm-16.83,0c0-9.95-.83-18.31-2.5-25.07-1.67-6.76-3.91-12.21-6.73-16.33-2.82-4.12-6.08-7.08-9.78-8.87-3.7-1.79-7.55-2.68-11.56-2.68s-7.86.9-11.56,2.68c-3.7,1.79-6.95,4.75-9.74,8.87-2.79,4.13-5.02,9.57-6.69,16.33-1.67,6.77-2.5,15.12-2.5,25.07s.83,18.29,2.5,25.02c1.67,6.73,3.9,12.16,6.69,16.29,2.79,4.13,6.04,7.08,9.74,8.87,3.7,1.79,7.55,2.68,11.56,2.68s7.86-.89,11.56-2.68c3.7-1.79,6.96-4.75,9.78-8.87,2.82-4.12,5.06-9.55,6.73-16.29,1.67-6.73,2.5-15.07,2.5-25.02Z"></path>
  <path class="cls-2" d="m187.05,57.17c-1.15,1.46-2.26,2.87-3.32,4.23-1.06,1.37-2.08,2.72-3.05,4.05,3.09-2.12,6.49-3.76,10.19-4.91,3.7-1.15,7.74-1.73,12.1-1.73,5.28,0,10.25.86,14.92,2.59,4.67,1.73,8.75,4.25,12.24,7.55,3.49,3.31,6.26,7.37,8.33,12.19,2.06,4.82,3.09,10.33,3.09,16.52s-1.09,11.59-3.28,16.74c-2.18,5.16-5.23,9.65-9.15,13.47-3.91,3.82-8.62,6.83-14.11,9.01-5.49,2.18-11.54,3.28-18.15,3.28s-12.5-1.05-17.84-3.14c-5.34-2.09-9.87-5.06-13.6-8.92-3.73-3.85-6.61-8.52-8.64-14.01-2.03-5.49-3.05-11.63-3.05-18.43,0-5.7,1.26-11.78,3.78-18.25,2.52-6.46,6.54-13.36,12.06-20.7l33.12-44.5c.85-1.09,2.02-2.02,3.5-2.78,1.49-.76,3.2-1.14,5.14-1.14h14.38l-38.67,48.87Zm9.46,69.52c4.37,0,8.33-.7,11.88-2.09,3.55-1.4,6.58-3.34,9.1-5.82,2.52-2.49,4.46-5.43,5.82-8.83,1.37-3.4,2.05-7.1,2.05-11.1,0-4.25-.67-8.08-2-11.51-1.34-3.43-3.23-6.34-5.69-8.74-2.46-2.4-5.38-4.23-8.78-5.5-3.4-1.27-7.13-1.91-11.19-1.91-4.37,0-8.31.74-11.83,2.23-3.52,1.49-6.51,3.49-8.96,6.01-2.46,2.52-4.34,5.43-5.64,8.74-1.31,3.31-1.96,6.75-1.96,10.33,0,4.19.61,8.01,1.82,11.47,1.21,3.46,2.99,6.43,5.32,8.92,2.33,2.49,5.19,4.41,8.55,5.78,3.37,1.37,7.2,2.05,11.51,2.05Z"></path>
</svg>
