<?xml version="1.0" encoding="UTF-8"?>
<svg xmlns="http://www.w3.org/2000/svg" id="Layer_1" viewBox="0 0 247.07 147">
  <defs>
    <style>.cls-1{fill:none;}.cls-2{fill:#f89521;}</style>
  </defs>
  <rect class="cls-1" width="247.07" height="147"></rect>
  <path class="cls-2" d="m7.65,128.69c0-1.58.29-3.06.87-4.46.58-1.39,1.36-2.61,2.37-3.64,1-1.03,2.2-1.85,3.59-2.46,1.4-.61,2.88-.91,4.46-.91s3.06.3,4.46.91c1.4.61,2.61,1.43,3.64,2.46,1.03,1.03,1.85,2.25,2.46,3.64.61,1.4.91,2.88.91,4.46s-.3,3.14-.91,4.5c-.61,1.36-1.43,2.56-2.46,3.59s-2.25,1.84-3.64,2.41c-1.4.58-2.88.86-4.46.86s-3.06-.29-4.46-.86c-1.4-.58-2.59-1.38-3.59-2.41-1-1.03-1.79-2.23-2.37-3.59-.58-1.37-.87-2.87-.87-4.5Z"></path>
  <path class="cls-2" d="m140.6,73.55c0,11.41-1.23,21.28-3.69,29.62-2.46,8.34-5.81,15.24-10.05,20.7-4.25,5.46-9.27,9.53-15.06,12.19-5.79,2.67-12,4-18.61,4s-12.88-1.33-18.61-4c-5.73-2.67-10.72-6.73-14.97-12.19-4.25-5.46-7.58-12.36-10.01-20.7-2.43-8.34-3.64-18.21-3.64-29.62s1.21-21.29,3.64-29.67c2.43-8.37,5.76-15.3,10.01-20.79,4.25-5.49,9.24-9.57,14.97-12.24,5.73-2.67,11.94-4,18.61-4s12.81,1.33,18.61,4c5.79,2.67,10.81,6.75,15.06,12.24,4.25,5.49,7.6,12.42,10.05,20.79,2.46,8.37,3.69,18.26,3.69,29.67Zm-16.83,0c0-9.95-.83-18.31-2.5-25.07-1.67-6.76-3.91-12.21-6.73-16.33-2.82-4.12-6.08-7.08-9.78-8.87-3.7-1.79-7.55-2.68-11.56-2.68s-7.86.9-11.56,2.68c-3.7,1.79-6.95,4.75-9.74,8.87-2.79,4.13-5.02,9.57-6.69,16.33-1.67,6.77-2.5,15.12-2.5,25.07s.83,18.29,2.5,25.02c1.67,6.73,3.9,12.16,6.69,16.29,2.79,4.13,6.04,7.08,9.74,8.87,3.7,1.79,7.55,2.68,11.56,2.68s7.86-.89,11.56-2.68c3.7-1.79,6.96-4.75,9.78-8.87,2.82-4.12,5.06-9.55,6.73-16.29,1.67-6.73,2.5-15.07,2.5-25.02Z"></path>
  <path class="cls-2" d="m179,57.53c6.79-1.46,13.04-2.18,18.75-2.18,6.79,0,12.8,1,18.02,3,5.22,2,9.57,4.76,13.06,8.28,3.49,3.52,6.13,7.67,7.92,12.47,1.79,4.79,2.68,10.01,2.68,15.65,0,6.92-1.2,13.17-3.59,18.75-2.4,5.58-5.7,10.36-9.92,14.33-4.22,3.97-9.18,7.02-14.88,9.15-5.7,2.12-11.86,3.18-18.47,3.18-3.82,0-7.49-.38-11.01-1.14-3.52-.76-6.81-1.77-9.87-3.05-3.06-1.27-5.9-2.73-8.51-4.37-2.61-1.64-4.91-3.37-6.92-5.19l5-6.92c1.09-1.58,2.52-2.37,4.28-2.37,1.21,0,2.58.47,4.1,1.41,1.52.94,3.37,1.99,5.55,3.14,2.18,1.15,4.75,2.2,7.69,3.14,2.94.94,6.45,1.41,10.51,1.41,4.55,0,8.64-.73,12.29-2.18,3.64-1.46,6.76-3.53,9.37-6.23s4.61-5.93,6.01-9.69c1.39-3.76,2.09-7.98,2.09-12.65,0-4.06-.59-7.74-1.77-11.01-1.18-3.28-2.97-6.07-5.37-8.37-2.4-2.31-5.38-4.1-8.96-5.37-3.58-1.27-7.77-1.91-12.56-1.91-3.28,0-6.69.27-10.24.82-3.55.55-7.17,1.43-10.88,2.64l-10.19-3,10.46-60.97h61.79v7.1c0,2.31-.71,4.2-2.14,5.69-1.43,1.49-3.87,2.23-7.33,2.23h-40.95l-6.01,34.22Z"></path>
</svg>
