<?xml version="1.0" encoding="UTF-8"?>
<svg xmlns="http://www.w3.org/2000/svg" id="Layer_1" viewBox="0 0 247.07 147">
  <defs>
    <style>.cls-1{fill:none;}.cls-2{fill:#f89521;}</style>
  </defs>
  <rect class="cls-1" width="247.07" height="147"></rect>
  <path class="cls-2" d="m6.55,128.74c0-1.58.29-3.06.87-4.46.58-1.39,1.36-2.61,2.37-3.64,1-1.03,2.2-1.85,3.59-2.46,1.4-.61,2.88-.91,4.46-.91s3.06.3,4.46.91c1.4.61,2.61,1.43,3.64,2.46,1.03,1.03,1.85,2.25,2.46,3.64.61,1.4.91,2.88.91,4.46s-.3,3.14-.91,4.5c-.61,1.36-1.43,2.56-2.46,3.59s-2.25,1.84-3.64,2.41c-1.4.58-2.88.86-4.46.86s-3.06-.29-4.46-.86c-1.4-.58-2.59-1.38-3.59-2.41-1-1.03-1.79-2.23-2.37-3.59-.58-1.37-.87-2.87-.87-4.5Z"></path>
  <path class="cls-2" d="m139.51,73.59c0,11.41-1.23,21.28-3.69,29.62-2.46,8.34-5.81,15.24-10.05,20.7-4.25,5.46-9.27,9.53-15.06,12.19-5.79,2.67-12,4-18.61,4s-12.88-1.33-18.61-4c-5.73-2.67-10.72-6.73-14.97-12.19-4.25-5.46-7.58-12.36-10.01-20.7-2.43-8.34-3.64-18.21-3.64-29.62s1.21-21.29,3.64-29.67c2.43-8.37,5.76-15.3,10.01-20.79,4.25-5.49,9.24-9.57,14.97-12.24,5.73-2.67,11.94-4,18.61-4s12.81,1.33,18.61,4c5.79,2.67,10.81,6.75,15.06,12.24,4.25,5.49,7.6,12.42,10.05,20.79,2.46,8.37,3.69,18.26,3.69,29.67Zm-16.83,0c0-9.95-.83-18.31-2.5-25.07-1.67-6.76-3.91-12.21-6.73-16.33-2.82-4.12-6.08-7.08-9.78-8.87-3.7-1.79-7.55-2.68-11.56-2.68s-7.86.9-11.56,2.68c-3.7,1.79-6.95,4.75-9.74,8.87-2.79,4.13-5.02,9.57-6.69,16.33-1.67,6.77-2.5,15.12-2.5,25.07s.83,18.29,2.5,25.02c1.67,6.73,3.9,12.16,6.69,16.29,2.79,4.13,6.04,7.08,9.74,8.87,3.7,1.79,7.55,2.68,11.56,2.68s7.86-.89,11.56-2.68c3.7-1.79,6.96-4.75,9.78-8.87,2.82-4.12,5.06-9.55,6.73-16.29,1.67-6.73,2.5-15.07,2.5-25.02Z"></path>
  <path class="cls-2" d="m234.78,123.37c1.76,0,3.15.52,4.19,1.55,1.03,1.03,1.55,2.37,1.55,4v9.83h-87v-5.55c0-1.15.24-2.33.73-3.55.48-1.21,1.24-2.33,2.27-3.37l41.77-41.95c3.46-3.52,6.61-6.9,9.46-10.15,2.85-3.24,5.28-6.51,7.28-9.78s3.55-6.6,4.64-9.96,1.64-6.96,1.64-10.78-.61-7.17-1.82-10.06c-1.21-2.88-2.87-5.26-4.96-7.14-2.09-1.88-4.57-3.29-7.42-4.23-2.85-.94-5.92-1.41-9.19-1.41s-6.4.49-9.19,1.46c-2.79.97-5.26,2.32-7.42,4.05-2.15,1.73-3.96,3.78-5.41,6.14-1.46,2.37-2.49,4.98-3.09,7.83-.73,2.12-1.71,3.54-2.96,4.23-1.24.7-2.99.9-5.23.59l-8.46-1.46c.85-5.95,2.5-11.21,4.96-15.79,2.46-4.58,5.55-8.42,9.28-11.51,3.73-3.09,7.99-5.44,12.79-7.05,4.79-1.61,9.98-2.41,15.56-2.41s10.68.82,15.47,2.46c4.79,1.64,8.95,4.02,12.47,7.14,3.52,3.12,6.28,6.93,8.28,11.42,2,4.49,3,9.59,3,15.29,0,4.85-.73,9.36-2.18,13.51-1.46,4.16-3.43,8.11-5.92,11.88-2.49,3.76-5.36,7.43-8.6,11.01-3.25,3.58-6.69,7.19-10.33,10.83l-34.4,35.13c2.43-.67,4.88-1.2,7.37-1.59,2.49-.39,4.88-.59,7.19-.59h43.68Z"></path>
</svg>
