<?xml version="1.0" encoding="UTF-8"?>
<svg xmlns="http://www.w3.org/2000/svg" id="Layer_1" viewBox="0 0 247.07 147">
  <defs>
    <style>.cls-1{fill:none;}.cls-2{fill:#f89521;}</style>
  </defs>
  <rect class="cls-1" width="247.07" height="147"></rect>
  <path class="cls-2" d="m6.65,128.69c0-1.58.29-3.06.87-4.46.58-1.39,1.36-2.61,2.37-3.64,1-1.03,2.2-1.85,3.59-2.46,1.4-.61,2.88-.91,4.46-.91s3.06.3,4.46.91c1.4.61,2.61,1.43,3.64,2.46,1.03,1.03,1.85,2.25,2.46,3.64.61,1.4.91,2.88.91,4.46s-.3,3.14-.91,4.5c-.61,1.36-1.43,2.56-2.46,3.59s-2.25,1.84-3.64,2.41c-1.4.58-2.88.86-4.46.86s-3.06-.29-4.46-.86c-1.4-.58-2.59-1.38-3.59-2.41-1-1.03-1.79-2.23-2.37-3.59-.58-1.37-.87-2.87-.87-4.5Z"></path>
  <path class="cls-2" d="m139.6,73.55c0,11.41-1.23,21.28-3.69,29.62-2.46,8.34-5.81,15.24-10.05,20.7-4.25,5.46-9.27,9.53-15.06,12.19-5.79,2.67-12,4-18.61,4s-12.88-1.33-18.61-4c-5.73-2.67-10.72-6.73-14.97-12.19-4.25-5.46-7.58-12.36-10.01-20.7-2.43-8.34-3.64-18.21-3.64-29.62s1.21-21.29,3.64-29.67c2.43-8.37,5.76-15.3,10.01-20.79,4.25-5.49,9.24-9.57,14.97-12.24,5.73-2.67,11.94-4,18.61-4s12.81,1.33,18.61,4c5.79,2.67,10.81,6.75,15.06,12.24,4.25,5.49,7.6,12.42,10.05,20.79,2.46,8.37,3.69,18.26,3.69,29.67Zm-16.83,0c0-9.95-.83-18.31-2.5-25.07-1.67-6.76-3.91-12.21-6.73-16.33-2.82-4.12-6.08-7.08-9.78-8.87-3.7-1.79-7.55-2.68-11.56-2.68s-7.86.9-11.56,2.68c-3.7,1.79-6.95,4.75-9.74,8.87-2.79,4.13-5.02,9.57-6.69,16.33-1.67,6.77-2.5,15.12-2.5,25.07s.83,18.29,2.5,25.02c1.67,6.73,3.9,12.16,6.69,16.29,2.79,4.13,6.04,7.08,9.74,8.87,3.7,1.79,7.55,2.68,11.56,2.68s7.86-.89,11.56-2.68c3.7-1.79,6.96-4.75,9.78-8.87,2.82-4.12,5.06-9.55,6.73-16.29,1.67-6.73,2.5-15.07,2.5-25.02Z"></path>
  <path class="cls-2" d="m156.89,43.61c.85-5.95,2.49-11.21,4.91-15.79,2.43-4.58,5.5-8.42,9.24-11.51s8.01-5.44,12.83-7.05c4.82-1.61,10.02-2.41,15.61-2.41s10.62.79,15.29,2.37c4.67,1.58,8.69,3.82,12.06,6.73s5.99,6.43,7.87,10.56c1.88,4.13,2.82,8.71,2.82,13.74,0,4.13-.53,7.81-1.59,11.06-1.06,3.25-2.58,6.08-4.55,8.51-1.97,2.43-4.35,4.49-7.14,6.19-2.79,1.7-5.92,3.09-9.37,4.19,8.49,2.18,14.88,5.93,19.16,11.24,4.28,5.31,6.42,11.94,6.42,19.88,0,6.01-1.14,11.41-3.41,16.2-2.27,4.79-5.38,8.87-9.33,12.24-3.94,3.37-8.54,5.95-13.79,7.73-5.25,1.79-10.88,2.68-16.88,2.68-6.92,0-12.83-.86-17.75-2.59-4.91-1.73-9.07-4.11-12.47-7.14-3.4-3.03-6.19-6.63-8.37-10.78-2.18-4.15-4.04-8.66-5.55-13.51l7.01-2.91c1.82-.79,3.59-1,5.32-.64,1.73.36,2.99,1.37,3.78,3,.79,1.7,1.77,3.73,2.96,6.1,1.18,2.37,2.81,4.64,4.87,6.82,2.06,2.18,4.69,4.04,7.87,5.55,3.18,1.52,7.23,2.27,12.15,2.27,4.55,0,8.54-.74,11.97-2.23,3.43-1.49,6.28-3.41,8.55-5.78,2.27-2.37,3.99-5,5.14-7.92,1.15-2.91,1.73-5.79,1.73-8.64,0-3.52-.46-6.73-1.37-9.65s-2.61-5.43-5.1-7.55c-2.49-2.12-5.9-3.79-10.24-5-4.34-1.21-9.91-1.82-16.7-1.82v-11.74c5.58-.06,10.33-.67,14.24-1.82s7.1-2.73,9.55-4.73,4.25-4.4,5.37-7.19c1.12-2.79,1.68-5.88,1.68-9.28,0-3.76-.59-7.04-1.77-9.83-1.18-2.79-2.81-5.1-4.87-6.92s-4.5-3.19-7.33-4.09c-2.82-.91-5.87-1.37-9.15-1.37s-6.32.49-9.15,1.46c-2.82.97-5.31,2.32-7.46,4.05-2.15,1.73-3.96,3.78-5.41,6.14-1.46,2.37-2.49,4.98-3.09,7.83-.79,2.12-1.77,3.54-2.96,4.23-1.18.7-2.9.9-5.14.59l-8.46-1.46Z"></path>
</svg>
