<?xml version="1.0" encoding="UTF-8"?>
<svg xmlns="http://www.w3.org/2000/svg" id="Layer_1" viewBox="0 0 57.34 57.34">
  <defs>
    <style>.cls-1{fill:#1f2759;}</style>
  </defs>
  <path class="cls-1" d="m28.67,57.34C12.86,57.34,0,44.48,0,28.67S12.86,0,28.67,0s28.67,12.86,28.67,28.67-12.86,28.67-28.67,28.67Zm0-55.34C13.96,2,2,13.96,2,28.67s11.96,26.67,26.67,26.67,26.67-11.96,26.67-26.67S43.37,2,28.67,2Z"></path>
  <path class="cls-1" d="m42.67,24.19c-.13,2.84-2.11,6.73-5.95,11.66-3.96,5.15-7.32,7.73-10.06,7.73-1.7,0-3.14-1.57-4.31-4.71-.78-2.88-1.57-5.75-2.35-8.63-.87-3.14-1.81-4.71-2.81-4.71-.22,0-.98.46-2.29,1.37l-1.37-1.77c1.44-1.26,2.86-2.53,4.25-3.8,1.92-1.66,3.36-2.53,4.32-2.62,2.27-.22,3.67,1.33,4.19,4.65.57,3.58.96,5.81,1.18,6.68.65,2.97,1.37,4.46,2.16,4.46.61,0,1.53-.96,2.75-2.89,1.22-1.93,1.87-3.4,1.96-4.4.17-1.66-.48-2.5-1.96-2.5-.7,0-1.42.16-2.16.48,1.43-4.69,4.17-6.97,8.21-6.84,3,.09,4.41,2.03,4.24,5.83Z"></path>
</svg>
