<?xml version="1.0" encoding="UTF-8"?>
<svg xmlns="http://www.w3.org/2000/svg" id="Layer_1" viewBox="0 0 57.34 57.34">
  <defs>
    <style>.cls-1{fill:#1f2759;}</style>
  </defs>
  <path class="cls-1" d="m28.67,57.34C12.86,57.34,0,44.48,0,28.67S12.86,0,28.67,0s28.67,12.86,28.67,28.67-12.86,28.67-28.67,28.67Zm0-55.34C13.96,2,2,13.96,2,28.67s11.96,26.67,26.67,26.67,26.67-11.96,26.67-26.67S43.37,2,28.67,2Z"></path>
  <g>
    <g>
      <g>
        <path class="cls-1" d="m24.55,12.01c-.4,1.66-.81,3.3-1.21,4.95-.09.03-.13,0-.15-.09-.32-1.28-.64-2.55-.96-3.83-.09-.34-.18-.69-.26-1.03h-1.93s0,.05.01.07c.35,1.16.71,2.33,1.06,3.49.37,1.2.73,2.4,1.1,3.59.08.26.11.53.11.8,0,1.46,0,2.91,0,4.37v.13h1.94v-.14c0-1.63,0-3.27,0-4.9,0-.06,0-.12.02-.18.31-1.03.63-2.07.94-3.1.36-1.19.72-2.38,1.09-3.57.06-.18.11-.37.17-.56h-1.94Z"></path>
        <path class="cls-1" d="m31.35,17.12c-.1-.95-.63-1.58-1.49-1.93-.52-.21-1.06-.2-1.6-.09-1.05.21-1.85,1.01-1.85,2.21,0,.82,0,1.64,0,2.46s0,1.6,0,2.41c0,.25.03.51.09.76.19.78.65,1.35,1.42,1.63.58.21,1.18.21,1.77.05.74-.2,1.27-.65,1.52-1.39.12-.34.16-.7.16-1.07,0-1.54,0-3.08,0-4.62,0-.14,0-.28-.02-.41Zm-1.72,5.24c0,.48-.31.76-.79.74-.45-.02-.66-.26-.66-.77,0-1.05,0-2.1,0-3.15,0-.6,0-1.21,0-1.81,0-.11.01-.22.05-.32.09-.23.27-.37.52-.39.13,0,.26,0,.39.02.29.05.48.28.48.57,0,.86,0,1.72,0,2.58h0c0,.84,0,1.69,0,2.53Z"></path>
        <path class="cls-1" d="m36.01,15.28v3.4c0,1.16,0,2.31,0,3.47,0,.05,0,.1-.03.14-.19.24-.42.44-.7.56-.11.05-.24.08-.36.08-.23,0-.34-.12-.35-.35,0-.11,0-.21,0-.32,0-2.28,0-4.56,0-6.85,0-.05,0-.1,0-.14h-1.73v.11c0,2.54,0,5.08,0,7.62,0,.21.02.42.07.62.1.42.31.77.75.91.29.09.59.07.88-.03.56-.18,1.01-.53,1.4-.96.02-.02.03-.05.04-.08.01,0,.03.02.04.03v.96h1.68v-9.19h-1.69Z"></path>
      </g>
      <path class="cls-1" d="m24.55,12.01h1.94c-.06.19-.11.38-.17.56-.36,1.19-.72,2.38-1.09,3.57-.31,1.03-.63,2.06-.94,3.1-.02.06-.02.12-.02.18,0,1.63,0,3.27,0,4.9,0,.05,0,.09,0,.14h-1.94s0-.09,0-.13c0-1.46,0-2.91,0-4.37,0-.28-.03-.54-.11-.8-.37-1.2-.73-2.39-1.1-3.59-.36-1.16-.71-2.33-1.06-3.49,0-.02,0-.04-.01-.07h1.93c.09.34.18.69.26,1.03.32,1.28.64,2.55.96,3.83.02.08.05.12.15.09.4-1.64.8-3.29,1.21-4.95Z"></path>
      <path class="cls-1" d="m37.69,24.46h-1.68v-.96s-.03-.02-.04-.03c-.01.03-.02.06-.04.08-.39.43-.84.78-1.4.96-.29.09-.58.12-.88.03-.45-.14-.65-.49-.75-.91-.05-.2-.07-.41-.07-.62,0-2.54,0-5.08,0-7.62v-.11h1.73s0,.09,0,.14c0,2.28,0,4.56,0,6.85,0,.11,0,.21,0,.32,0,.23.12.35.35.35.12,0,.25-.03.36-.08.28-.13.51-.32.7-.56.03-.03.03-.09.03-.14,0-1.16,0-2.31,0-3.47,0-1.09,0-2.17,0-3.26v-.14h1.69v9.19Z"></path>
    </g>
    <path class="cls-1" d="m42.74,33.18c0-.33-.03-.66-.05-.99-.03-.49-.06-.98-.1-1.46-.03-.33-.04-.66-.1-.98-.17-.85-.59-1.57-1.24-2.15-.69-.63-1.5-.98-2.42-1.05-.6-.05-1.2-.05-1.81-.07-.64-.02-1.28-.04-1.91-.05-.87-.02-1.75-.03-2.62-.04-1.27,0-2.55,0-3.82,0,0-.01,0-.03,0-.04-2.49.04-4.99.07-7.48.11-.74.01-1.49.04-2.23.07-.32.01-.64.03-.95.09-1.01.21-1.83.73-2.45,1.55-.45.6-.72,1.27-.78,2.02-.06.67-.1,1.34-.13,2.02-.04.81-.08,1.62-.08,2.44,0,1.31.02,2.61.04,3.92,0,.34.03.67.05,1.01.03.49.06.98.1,1.47.02.28.04.57.09.84.18.97.67,1.76,1.44,2.38.74.6,1.61.89,2.56.9.52,0,1.04.04,1.55.05.85.02,1.7.05,2.55.06,1.32.02,2.64.04,3.96.04,1.6,0,3.21,0,4.81,0,1.19,0,2.38-.02,3.58-.05,1.07-.02,2.14-.06,3.21-.1.3-.01.61-.04.9-.11,1.45-.35,2.44-1.23,2.96-2.63.16-.41.2-.85.22-1.29.03-.6.08-1.2.11-1.79.03-.74.07-1.47.07-2.21,0-1.32-.02-2.64-.03-3.96Zm-21.9-1.73v10.28c0,.36,0,.37-.37.37-.54,0-1.07,0-1.61,0-.26,0-.31-.05-.31-.31v-10.34h-.22c-.51,0-1.01,0-1.52,0-.19,0-.24-.05-.24-.24,0-.58,0-1.16,0-1.75,0-.18.05-.23.22-.23,1.93,0,3.87,0,5.8,0,.19,0,.26.07.26.26,0,.56,0,1.13,0,1.69,0,.19-.07.26-.26.26-.54,0-1.08,0-1.62,0h-.14Zm6.86,10.34s0,.06,0,.1c0,.16-.05.22-.22.22-.54,0-1.07,0-1.61,0-.19,0-.26-.07-.26-.26,0-.14,0-.29,0-.46-.29.27-.58.48-.91.64-.36.17-.73.24-1.13.19-.57-.08-.92-.5-1.02-1.02-.05-.27-.08-.54-.08-.81,0-2.53,0-5.05,0-7.58,0-.22.07-.29.28-.29.51,0,1.03,0,1.54,0,.2,0,.27.07.27.27,0,.39,0,.78,0,1.17,0,1.81,0,3.62,0,5.43,0,.2,0,.4,0,.6,0,.19.12.28.31.22.21-.07.38-.21.55-.36.04-.03.06-.08.1-.11.08-.06.08-.13.08-.22,0-1.56,0-3.12,0-4.67,0-.7,0-1.39,0-2.09,0-.17.08-.25.24-.25.55,0,1.09,0,1.64,0,.15,0,.2.05.21.21,0,.03,0,.06,0,.1v8.99Zm6.62-1.68c0,.5-.09.99-.38,1.41-.3.44-.73.65-1.25.69-.56.04-1.05-.15-1.5-.47-.01,0-.03-.02-.06-.03,0,.06,0,.1,0,.15,0,.17-.07.24-.25.25-.23,0-.47,0-.7,0-.31,0-.61,0-.92,0-.2,0-.27-.08-.27-.27,0-4.11,0-8.21,0-12.32,0-.2.07-.27.27-.27.54,0,1.07,0,1.61,0,.19,0,.25.07.25.26,0,1.1,0,2.2,0,3.3v.13c.15-.1.27-.2.41-.28.62-.35,1.25-.38,1.86,0,.44.27.66.71.79,1.19.09.33.13.67.13,1.01,0,1.75,0,3.51,0,5.26Zm6.33-2.63c0,.16-.05.22-.21.22-.97,0-1.94,0-2.91,0h-.14c0,.38,0,.74,0,1.1,0,.33,0,.66.02.99,0,.12.04.24.08.35.05.14.17.21.32.22.08,0,.16,0,.23,0,.2-.03.33-.11.36-.3.02-.19.05-.38.06-.57.01-.26,0-.53,0-.79,0-.18.07-.26.25-.26.56,0,1.12,0,1.68,0,.17,0,.24.07.24.24,0,.38,0,.77-.03,1.15-.06.7-.28,1.34-.79,1.85-.33.33-.74.51-1.19.59-.53.1-1.05.11-1.58-.03-.62-.16-1.07-.54-1.4-1.08-.26-.43-.39-.91-.43-1.41-.01-.17-.02-.34-.02-.51,0-1.43-.02-2.85,0-4.28.02-1.35.95-2.37,2.13-2.62.76-.16,1.5-.09,2.18.33.56.34.85.87,1.01,1.49.08.32.11.65.11.99,0,.78,0,1.56,0,2.34Zm-8.53-2.81c-.04-.3-.23-.48-.5-.44-.12.02-.23.09-.33.15-.12.07-.16.17-.16.32,0,.87,0,1.74,0,2.61s0,1.79,0,2.68c0,.04,0,.09.02.12.18.22.4.33.69.3.16-.02.26-.12.28-.3.01-.13.02-.25.02-.38,0-1.57,0-3.14,0-4.7,0-.12,0-.23-.02-.35Zm6.3-.03c-.04-.24-.14-.32-.38-.36-.37-.06-.61.1-.63.45-.03.38-.02.76-.02,1.14,0,0,0,.01.01.02h1.07c0-.23,0-.45,0-.67,0-.19-.01-.39-.04-.58Z"></path>
  </g>
</svg>
